# xmcd
#
# Track frame offsets:
#	150
#	33765
#	59472
#	94982
#	129902
#	186862
#	252932
#
# Disc length: 3803 seconds
#
# Revision: 2
# Processed by: cddbd v1.4PL0 Copyright (c) Steve Scherf et al.
# Submitted via: audiograbber 1.81.02
#
DISCID=580ed907
DTITLE=Bukka White - Sky Songs
DYEAR=1900
DGENRE=Blues
TTITLE0=Bald Eagle Train
TTITLE1=Single Man Blues
TTITLE2=Georgia Skin Game
TTITLE3=Jesus Died On The Cross To Save The World
TTITLE4=Sugar Hill
TTITLE5=My Baby
TTITLE6=Alabama Blues
EXTD=CD-323
EXTT0=
EXTT1=
EXTT2=
EXTT3=
EXTT4=
EXTT5=
EXTT6=
PLAYORDER=
